<?xml version="1.0" encoding="UTF-8" standalone="no"?>
<!-- Created with Inkscape (http://www.inkscape.org/) -->

<svg
   xmlns:dc="http://purl.org/dc/elements/1.1/"
   xmlns:cc="http://creativecommons.org/ns#"
   xmlns:rdf="http://www.w3.org/1999/02/22-rdf-syntax-ns#"
   xmlns:svg="http://www.w3.org/2000/svg"
   xmlns="http://www.w3.org/2000/svg"
   xmlns:sodipodi="http://sodipodi.sourceforge.net/DTD/sodipodi-0.dtd"
   xmlns:inkscape="http://www.inkscape.org/namespaces/inkscape"
   width="210mm"
   height="297mm"
   viewBox="0 0 210 297"
   version="1.1"
   id="svg8"
   enable-background="new"
   inkscape:version="0.92.3 (2405546, 2018-03-11)"
   sodipodi:docname="drawing.svg">
  <defs
     id="defs2">
    <inkscape:perspective
       sodipodi:type="inkscape:persp3d"
       inkscape:vp_x="121.8749 : 113.22042 : 1"
       inkscape:vp_y="0 : 1000 : 0"
       inkscape:vp_z="331.8749 : 113.22042 : 1"
       inkscape:persp3d-origin="226.8749 : 63.720421 : 1"
       id="perspective1460" />
  </defs>
  <sodipodi:namedview
     id="base"
     pagecolor="#ffffff"
     bordercolor="#666666"
     borderopacity="1.0"
     inkscape:pageopacity="0.0"
     inkscape:pageshadow="2"
     inkscape:zoom="0.49497475"
     inkscape:cx="31.801948"
     inkscape:cy="411.44409"
     inkscape:document-units="mm"
     inkscape:current-layer="g1632"
     showgrid="false"
     inkscape:measure-start="0,0"
     inkscape:measure-end="0,0"
     inkscape:window-width="1600"
     inkscape:window-height="847"
     inkscape:window-x="0"
     inkscape:window-y="25"
     inkscape:window-maximized="1" />
  <metadata
     id="metadata5">
    <rdf:RDF>
      <cc:Work
         rdf:about="">
        <dc:format>image/svg+xml</dc:format>
        <dc:type
           rdf:resource="http://purl.org/dc/dcmitype/StillImage" />
        <dc:title></dc:title>
      </cc:Work>
    </rdf:RDF>
  </metadata>
  <g
     inkscape:label="Layer 1"
     inkscape:groupmode="layer"
     id="layer1">
    <g
       id="g1632">
      <rect
         y="188.53424"
         x="12.967332"
         height="62.541065"
         width="165.70711"
         id="rect1537"
         style="opacity:1;fill:#000000;fill-opacity:1;fill-rule:nonzero;stroke:none;stroke-width:0.26458335;stroke-opacity:1" />
      <g
         transform="translate(-1.032629,72.162772)"
         id="g1535"
         inkscape:export-filename="/home/t-ara/Documents/yko/pf0/Webs/licenza/images/all-img/g2636.png"
         inkscape:export-xdpi="230"
         inkscape:export-ydpi="230">
        <circle
           style="opacity:1;fill:#ff4e56;fill-opacity:1;fill-rule:nonzero;stroke:none;stroke-width:0.26458332;stroke-opacity:1"
           id="path1476"
           cx="154.48178"
           cy="147.8636"
           r="8.5526247" />
        <path
           inkscape:connector-curvature="0"
           id="path862"
           style="font-style:normal;font-variant:normal;font-weight:normal;font-stretch:normal;font-size:11.93081856px;line-height:1.25;font-family:'Anglepoise Lampshade';-inkscape-font-specification:'Anglepoise Lampshade, Normal';font-variant-ligatures:normal;font-variant-caps:normal;font-variant-numeric:normal;font-feature-settings:normal;text-align:start;letter-spacing:0px;word-spacing:0px;writing-mode:lr-tb;text-anchor:start;fill:#ffffff;fill-opacity:1;stroke:none;stroke-width:0.26458335"
           d="M 39.928378,159.23505 H 26.93224 v -29.02299 h 5.496388 v 21.67733 h 7.49975 z" />
        <path
           inkscape:connector-curvature="0"
           id="path866"
           style="font-style:normal;font-variant:normal;font-weight:normal;font-stretch:normal;font-size:11.93081856px;line-height:1.25;font-family:'Anglepoise Lampshade';-inkscape-font-specification:'Anglepoise Lampshade, Normal';font-variant-ligatures:normal;font-variant-caps:normal;font-variant-numeric:normal;font-feature-settings:normal;text-align:start;letter-spacing:0px;word-spacing:0px;writing-mode:lr-tb;text-anchor:start;fill:#ffffff;fill-opacity:1;stroke:none;stroke-width:0.26458335"
           d="M 71.281267,159.23505 H 59.158388 q -3.544404,0 -4.674503,-1.46559 -0.873258,-1.08871 -0.873258,-4.14548 v -12.35273 q 0,-3.01491 0.873258,-4.14549 1.130099,-1.46558 4.674503,-1.46558 h 12.122879 v 5.98794 H 60.750798 q -1.643779,0 -1.643779,1.5912 v 8.41659 q 0,1.59119 1.643779,1.59119 h 10.530469 z" />
        <path
           inkscape:connector-curvature="0"
           id="path868"
           style="font-style:normal;font-variant:normal;font-weight:normal;font-stretch:normal;font-size:11.93081856px;line-height:1.25;font-family:'Anglepoise Lampshade';-inkscape-font-specification:'Anglepoise Lampshade, Normal';font-variant-ligatures:normal;font-variant-caps:normal;font-variant-numeric:normal;font-feature-settings:normal;text-align:start;letter-spacing:0px;word-spacing:0px;writing-mode:lr-tb;text-anchor:start;fill:#ffffff;fill-opacity:1;stroke:none;stroke-width:0.26458335"
           d="m 92.481812,141.68999 h -11.81467 v 2.72178 h 5.342285 v 6.02981 H 75.170749 v -14.7814 h 17.311063 z m 0,17.54506 H 75.170749 v -5.98795 h 17.311063 z" />
        <path
           inkscape:connector-curvature="0"
           id="path872"
           style="font-style:normal;font-variant:normal;font-weight:normal;font-stretch:normal;font-size:11.93081856px;line-height:1.25;font-family:'Anglepoise Lampshade';-inkscape-font-specification:'Anglepoise Lampshade, Normal';font-variant-ligatures:normal;font-variant-caps:normal;font-variant-numeric:normal;font-feature-settings:normal;text-align:start;letter-spacing:0px;word-spacing:0px;writing-mode:lr-tb;text-anchor:start;fill:#ffffff;fill-opacity:1;stroke:none;stroke-width:0.26458335"
           d="m 139.35532,159.23505 h -15.56454 v -4.18737 l 8.68121,-13.35769 h -8.68121 v -5.98794 h 15.56454 v 4.64797 l -8.2189,12.89708 h 8.2189 z" />
        <path
           inkscape:connector-curvature="0"
           id="path849"
           style="font-style:normal;font-variant:normal;font-weight:normal;font-stretch:normal;font-size:11.9308176px;line-height:1.25;font-family:'Astro 867';-inkscape-font-specification:'Astro 867, Normal';font-variant-ligatures:normal;font-variant-caps:normal;font-variant-numeric:normal;font-feature-settings:normal;text-align:start;letter-spacing:0px;word-spacing:0px;writing-mode:lr-tb;text-anchor:start;fill:#ffffff;fill-opacity:1;stroke:none;stroke-width:0.26458332"
           d="m 43.817862,147.42848 h 5.903282 v 11.80657 h -5.903282 z m 2.910067,-11.80658 q 1.247173,0 2.078622,0.91461 0.914593,0.83145 0.914593,1.99546 0,1.24718 -0.914593,2.16178 -0.831449,0.83145 -2.078622,0.83145 -1.24717,0 -2.078619,-0.83145 -0.831448,-0.9146 -0.831448,-2.16178 0,-1.16401 0.831448,-1.99546 0.831449,-0.91461 2.078619,-0.91461 z" />
        <path
           inkscape:connector-curvature="0"
           id="path855"
           style="font-style:normal;font-variant:normal;font-weight:normal;font-stretch:normal;font-size:11.9308176px;line-height:1.25;font-family:'Astro 867';-inkscape-font-specification:'Astro 867, Normal';font-variant-ligatures:normal;font-variant-caps:normal;font-variant-numeric:normal;font-feature-settings:normal;text-align:start;letter-spacing:0px;word-spacing:0px;writing-mode:lr-tb;text-anchor:start;fill:#ffffff;fill-opacity:1;stroke:none;stroke-width:0.26458332"
           d="m 96.371292,147.42848 q 0,-4.8224 3.408937,-8.31449 3.492091,-3.49209 8.397631,-3.49209 4.8224,0 8.23135,3.49209 3.49209,3.49209 3.49209,8.31449 v 11.80657 h -5.82014 v -11.80657 q 0,-2.41121 -1.74606,-4.15725 -1.74604,-1.74603 -4.15724,-1.74603 -2.49434,0 -4.24038,1.74603 -1.6629,1.74604 -1.6629,4.15725 v 11.80657 h -5.903288 z" />
        <path
           inkscape:connector-curvature="0"
           id="path859"
           style="font-style:normal;font-variant:normal;font-weight:normal;font-stretch:normal;font-size:11.9308176px;line-height:1.25;font-family:'Astro 867';-inkscape-font-specification:'Astro 867, Normal';font-variant-ligatures:normal;font-variant-caps:normal;font-variant-numeric:normal;font-feature-settings:normal;text-align:start;letter-spacing:0px;word-spacing:0px;writing-mode:lr-tb;text-anchor:start;fill:#ffffff;fill-opacity:1;stroke:none;stroke-width:0.26458332"
           d="m 155.05138,159.23505 q -4.90556,0 -8.39765,-3.40895 -3.40893,-3.49207 -3.40893,-8.39762 0,-4.8224 3.40893,-8.31449 3.49209,-3.49209 8.39765,-3.49209 4.82239,0 8.23132,3.49209 3.49209,3.49209 3.49209,8.31449 v 11.80657 z m 0,-17.70985 q -2.49435,0 -4.24041,1.74603 -1.66289,1.74604 -1.66289,4.15725 0,2.49434 1.66289,4.24038 1.74606,1.66289 4.24041,1.66289 2.41118,0 4.15724,-1.66289 1.74603,-1.74604 1.74603,-4.24038 0,-2.41121 -1.74603,-4.15725 -1.74606,-1.74603 -4.15724,-1.74603 z" />
      </g>
      <rect
         y="234.04364"
         x="52.954418"
         height="4.2763124"
         width="112.78774"
         id="rect1539"
         style="opacity:1;fill:#ffffff;fill-opacity:1;fill-rule:nonzero;stroke:none;stroke-width:0.26458332;stroke-opacity:1"
         inkscape:export-filename="/home/t-ara/Documents/yko/pf0/Webs/licenza/images/all-img/g2636.png"
         inkscape:export-xdpi="230"
         inkscape:export-ydpi="230" />
    </g>
    <g
       id="g1700">
      <circle
         r="8.5526247"
         cy="103.71846"
         cx="157.05252"
         id="path1476-5"
         style="opacity:1;fill:#ff4e56;fill-opacity:1;fill-rule:nonzero;stroke:none;stroke-width:0.26458332;stroke-opacity:1" />
      <g
         style="fill:#000000"
         id="g1669">
        <path
           inkscape:connector-curvature="0"
           id="path862-8"
           style="font-style:normal;font-variant:normal;font-weight:normal;font-stretch:normal;font-size:11.93081856px;line-height:1.25;font-family:'Anglepoise Lampshade';-inkscape-font-specification:'Anglepoise Lampshade, Normal';font-variant-ligatures:normal;font-variant-caps:normal;font-variant-numeric:normal;font-feature-settings:normal;text-align:start;letter-spacing:0px;word-spacing:0px;writing-mode:lr-tb;text-anchor:start;fill:#000000;fill-opacity:1;stroke:none;stroke-width:0.26458335"
           d="M 42.499124,115.08991 H 29.502986 V 86.066917 h 5.496388 v 21.677333 h 7.49975 z" />
        <path
           inkscape:connector-curvature="0"
           id="path866-4"
           style="font-style:normal;font-variant:normal;font-weight:normal;font-stretch:normal;font-size:11.93081856px;line-height:1.25;font-family:'Anglepoise Lampshade';-inkscape-font-specification:'Anglepoise Lampshade, Normal';font-variant-ligatures:normal;font-variant-caps:normal;font-variant-numeric:normal;font-feature-settings:normal;text-align:start;letter-spacing:0px;word-spacing:0px;writing-mode:lr-tb;text-anchor:start;fill:#000000;fill-opacity:1;stroke:none;stroke-width:0.26458335"
           d="M 73.852013,115.08991 H 61.729134 q -3.544404,0 -4.674503,-1.46559 -0.873258,-1.08871 -0.873258,-4.14548 V 97.126107 q 0,-3.01491 0.873258,-4.14549 1.130099,-1.46558 4.674503,-1.46558 h 12.122879 v 5.98794 H 63.321544 q -1.643779,0 -1.643779,1.5912 v 8.416593 q 0,1.59119 1.643779,1.59119 h 10.530469 z" />
        <path
           inkscape:connector-curvature="0"
           id="path868-5"
           style="font-style:normal;font-variant:normal;font-weight:normal;font-stretch:normal;font-size:11.93081856px;line-height:1.25;font-family:'Anglepoise Lampshade';-inkscape-font-specification:'Anglepoise Lampshade, Normal';font-variant-ligatures:normal;font-variant-caps:normal;font-variant-numeric:normal;font-feature-settings:normal;text-align:start;letter-spacing:0px;word-spacing:0px;writing-mode:lr-tb;text-anchor:start;fill:#000000;fill-opacity:1;stroke:none;stroke-width:0.26458335"
           d="m 95.052558,97.544847 h -11.81467 v 2.721783 h 5.342285 v 6.02981 H 77.741495 V 91.515037 h 17.311063 z m 0,17.545063 H 77.741495 v -5.98795 h 17.311063 z" />
        <path
           inkscape:connector-curvature="0"
           id="path872-8"
           style="font-style:normal;font-variant:normal;font-weight:normal;font-stretch:normal;font-size:11.93081856px;line-height:1.25;font-family:'Anglepoise Lampshade';-inkscape-font-specification:'Anglepoise Lampshade, Normal';font-variant-ligatures:normal;font-variant-caps:normal;font-variant-numeric:normal;font-feature-settings:normal;text-align:start;letter-spacing:0px;word-spacing:0px;writing-mode:lr-tb;text-anchor:start;fill:#000000;fill-opacity:1;stroke:none;stroke-width:0.26458335"
           d="m 141.92607,115.08991 h -15.56454 v -4.18737 l 8.68121,-13.357693 h -8.68121 v -5.98794 h 15.56454 v 4.64797 l -8.2189,12.897083 h 8.2189 z" />
        <path
           inkscape:connector-curvature="0"
           id="path849-8"
           style="font-style:normal;font-variant:normal;font-weight:normal;font-stretch:normal;font-size:11.9308176px;line-height:1.25;font-family:'Astro 867';-inkscape-font-specification:'Astro 867, Normal';font-variant-ligatures:normal;font-variant-caps:normal;font-variant-numeric:normal;font-feature-settings:normal;text-align:start;letter-spacing:0px;word-spacing:0px;writing-mode:lr-tb;text-anchor:start;fill:#000000;fill-opacity:1;stroke:none;stroke-width:0.26458332"
           d="m 46.388608,103.28334 h 5.903282 v 11.80657 h -5.903282 z m 2.910067,-11.806583 q 1.247173,0 2.078622,0.91461 0.914593,0.83145 0.914593,1.99546 0,1.24718 -0.914593,2.16178 -0.831449,0.83145 -2.078622,0.83145 -1.24717,0 -2.078619,-0.83145 -0.831448,-0.9146 -0.831448,-2.16178 0,-1.16401 0.831448,-1.99546 0.831449,-0.91461 2.078619,-0.91461 z" />
        <path
           inkscape:connector-curvature="0"
           id="path855-1"
           style="font-style:normal;font-variant:normal;font-weight:normal;font-stretch:normal;font-size:11.9308176px;line-height:1.25;font-family:'Astro 867';-inkscape-font-specification:'Astro 867, Normal';font-variant-ligatures:normal;font-variant-caps:normal;font-variant-numeric:normal;font-feature-settings:normal;text-align:start;letter-spacing:0px;word-spacing:0px;writing-mode:lr-tb;text-anchor:start;fill:#000000;fill-opacity:1;stroke:none;stroke-width:0.26458332"
           d="m 98.942038,103.28334 q 0,-4.822403 3.408932,-8.314493 3.4921,-3.49209 8.39764,-3.49209 4.8224,0 8.23135,3.49209 3.49209,3.49209 3.49209,8.314493 v 11.80657 h -5.82014 v -11.80657 q 0,-2.41121 -1.74606,-4.157253 -1.74604,-1.74603 -4.15724,-1.74603 -2.49434,0 -4.24038,1.74603 -1.6629,1.746043 -1.6629,4.157253 v 11.80657 h -5.903292 z" />
        <path
           inkscape:connector-curvature="0"
           id="path859-9"
           style="font-style:normal;font-variant:normal;font-weight:normal;font-stretch:normal;font-size:11.9308176px;line-height:1.25;font-family:'Astro 867';-inkscape-font-specification:'Astro 867, Normal';font-variant-ligatures:normal;font-variant-caps:normal;font-variant-numeric:normal;font-feature-settings:normal;text-align:start;letter-spacing:0px;word-spacing:0px;writing-mode:lr-tb;text-anchor:start;fill:#000000;fill-opacity:1;stroke:none;stroke-width:0.26458332"
           d="m 157.62213,115.08991 q -4.90556,0 -8.39765,-3.40895 -3.40893,-3.49207 -3.40893,-8.39762 0,-4.822403 3.40893,-8.314493 3.49209,-3.49209 8.39765,-3.49209 4.82239,0 8.23132,3.49209 3.49209,3.49209 3.49209,8.314493 v 11.80657 z m 0,-17.709853 q -2.49435,0 -4.24041,1.74603 -1.66289,1.746043 -1.66289,4.157253 0,2.49434 1.66289,4.24038 1.74606,1.66289 4.24041,1.66289 2.41118,0 4.15724,-1.66289 1.74603,-1.74604 1.74603,-4.24038 0,-2.41121 -1.74603,-4.157253 -1.74606,-1.74603 -4.15724,-1.74603 z" />
      </g>
      <rect
         y="117.73571"
         x="56.557781"
         height="4.2763124"
         width="112.78774"
         id="rect1539-0"
         style="opacity:1;fill:#000000;fill-opacity:1;fill-rule:nonzero;stroke:none;stroke-width:0.26458332;stroke-opacity:1" />
    </g>
  </g>
</svg>
