<?xml version="1.0" encoding="UTF-8" standalone="no"?>
<!-- Created with Inkscape (http://www.inkscape.org/) -->

<svg
   xmlns:dc="http://purl.org/dc/elements/1.1/"
   xmlns:cc="http://creativecommons.org/ns#"
   xmlns:rdf="http://www.w3.org/1999/02/22-rdf-syntax-ns#"
   xmlns:svg="http://www.w3.org/2000/svg"
   xmlns="http://www.w3.org/2000/svg"
   xmlns:sodipodi="http://sodipodi.sourceforge.net/DTD/sodipodi-0.dtd"
   xmlns:inkscape="http://www.inkscape.org/namespaces/inkscape"
   width="800mm"
   height="350mm"
   viewBox="0 0 800 350"
   version="1.1"
   id="svg8"
   inkscape:version="0.92.3 (2405546, 2018-03-11)"
   sodipodi:docname="meraki.svg"
   inkscape:export-filename="/home/t-ara/Documents/yko/pf0/Webs/meraki/images/meraki.png"
   inkscape:export-xdpi="230"
   inkscape:export-ydpi="230">
  <defs
     id="defs2" />
  <sodipodi:namedview
     id="base"
     pagecolor="#ffffff"
     bordercolor="#666666"
     borderopacity="1.0"
     inkscape:pageopacity="0.0"
     inkscape:pageshadow="2"
     inkscape:zoom="0.25631148"
     inkscape:cx="1511.811"
     inkscape:cy="661.41732"
     inkscape:document-units="px"
     inkscape:current-layer="layer1"
     showgrid="false"
     width="800mm"
     inkscape:window-width="1600"
     inkscape:window-height="847"
     inkscape:window-x="0"
     inkscape:window-y="25"
     inkscape:window-maximized="1" />
  <metadata
     id="metadata5">
    <rdf:RDF>
      <cc:Work
         rdf:about="">
        <dc:format>image/svg+xml</dc:format>
        <dc:type
           rdf:resource="http://purl.org/dc/dcmitype/StillImage" />
        <dc:title></dc:title>
      </cc:Work>
    </rdf:RDF>
  </metadata>
  <g
     inkscape:label="Layer 1"
     inkscape:groupmode="layer"
     id="layer1"
     transform="translate(0,52.999995)">
    <rect
       style="display:inline;opacity:1;fill:#1a1a1a;fill-opacity:1;fill-rule:nonzero;stroke:none;stroke-width:0.26458335;stroke-opacity:1"
       id="rect4824"
       width="813.43085"
       height="369.55362"
       x="-6.1936359"
       y="-62.2309"
       sodipodi:insensitive="true" />
    <path
       style="opacity:1;fill:#ff4e56;fill-opacity:1;fill-rule:nonzero;stroke:none;stroke-width:0.26458332;stroke-opacity:1"
       d="M 348.22691,-28.27148 346.10874,277.70265 19.238983,234.60532 19.633546,11.203619 Z"
       id="rect823"
       inkscape:connector-curvature="0"
       sodipodi:nodetypes="ccccc"
       inkscape:export-filename="/home/t-ara/Documents/yko/pf0/Webs/meraki/images/all-img/g2636.png"
       inkscape:export-xdpi="230"
       inkscape:export-ydpi="230" />
    <path
       inkscape:connector-curvature="0"
       id="path828"
       style="font-style:normal;font-variant:normal;font-weight:bold;font-stretch:normal;font-size:medium;line-height:1.25;font-family:Oswald;-inkscape-font-specification:'Oswald, Bold';font-variant-ligatures:normal;font-variant-caps:normal;font-variant-numeric:normal;font-feature-settings:normal;text-align:start;letter-spacing:0px;word-spacing:0px;writing-mode:lr-tb;text-anchor:start;fill:#ffffff;fill-opacity:1;stroke:none;stroke-width:0.26458332"
       d="M 44.453011,219.33204 47.918125,21.609748 h 50.30832 L 121.84055,137.28563 147.25139,21.609748 h 48.63993 l 3.46511,197.722292 H 165.73199 L 162.26688,88.153216 137.24106,219.33204 h -29.3893 L 81.670898,87.199185 78.462461,219.33204 Z"
       inkscape:export-filename="/home/t-ara/Documents/yko/pf0/Webs/meraki/images/all-img/g2636.png"
       inkscape:export-xdpi="230"
       inkscape:export-ydpi="230" />
    <path
       inkscape:connector-curvature="0"
       id="path830"
       style="font-style:normal;font-variant:normal;font-weight:bold;font-stretch:normal;font-size:medium;line-height:1.25;font-family:Oswald;-inkscape-font-specification:'Oswald, Bold';font-variant-ligatures:normal;font-variant-caps:normal;font-variant-numeric:normal;font-feature-settings:normal;text-align:start;letter-spacing:0px;word-spacing:0px;writing-mode:lr-tb;text-anchor:start;fill:#ffffff;fill-opacity:1;stroke:none;stroke-width:0.26458332"
       d="m 267.11866,132.63473 h 20.91901 v -14.07186 q 0,-7.87078 -2.82342,-11.0906 -2.82343,-3.33907 -8.08527,-3.33907 -5.00517,0 -7.57191,3.81611 -2.43841,3.81611 -2.43841,12.99859 z m 10.13866,89.20165 q -25.15416,0 -38.88627,-12.52161 -13.73212,-12.52161 -13.73212,-35.29903 v -50.56349 q 0,-22.77742 13.73212,-35.17979 13.86045,-12.521609 38.88627,-12.521609 25.2825,0 37.85958,12.163873 12.70541,12.044567 12.70541,35.537526 v 27.78606 h -60.70365 v 24.80473 q 0,8.58625 2.31007,12.99865 2.31008,4.2931 7.82859,4.2931 10.78035,0 10.78035,-13.71413 v -9.42103 h 39.78464 v 8.22845 q 0,21.10792 -13.3471,32.31771 -13.21877,11.09059 -37.21789,11.09059 z"
       inkscape:export-filename="/home/t-ara/Documents/yko/pf0/Webs/meraki/images/all-img/g2636.png"
       inkscape:export-xdpi="230"
       inkscape:export-ydpi="230" />
    <path
       inkscape:connector-curvature="0"
       id="path832"
       style="font-style:normal;font-variant:normal;font-weight:bold;font-stretch:normal;font-size:medium;line-height:1.25;font-family:Oswald;-inkscape-font-specification:'Oswald, Bold';font-variant-ligatures:normal;font-variant-caps:normal;font-variant-numeric:normal;font-feature-settings:normal;text-align:start;letter-spacing:0px;word-spacing:0px;writing-mode:lr-tb;text-anchor:start;fill:#ffffff;fill-opacity:1;stroke:none;stroke-width:0.26458332"
       d="M 351.82144,219.33204 V 78.135892 h 42.86476 v 23.492958 q 13.98878,-25.281768 30.41596,-25.281768 2.31011,0 6.03186,0.954027 v 35.299031 q -3.59342,-0.83472 -7.05856,-0.83472 -17.58225,0.83472 -29.38926,17.0532 v 90.51342 z"
       inkscape:export-filename="/home/t-ara/Documents/yko/pf0/Webs/meraki/images/all-img/g2636.png"
       inkscape:export-xdpi="230"
       inkscape:export-ydpi="230" />
    <path
       inkscape:connector-curvature="0"
       id="path834"
       style="font-style:normal;font-variant:normal;font-weight:bold;font-stretch:normal;font-size:medium;line-height:1.25;font-family:Oswald;-inkscape-font-specification:'Oswald, Bold';font-variant-ligatures:normal;font-variant-caps:normal;font-variant-numeric:normal;font-feature-settings:normal;text-align:start;letter-spacing:0px;word-spacing:0px;writing-mode:lr-tb;text-anchor:start;fill:#ffffff;fill-opacity:1;stroke:none;stroke-width:0.26458332"
       d="m 494.6611,194.40806 q 3.08015,0 6.28857,-1.90806 3.33676,-2.0273 5.39016,-4.77013 v -38.63811 q -10.26699,4.77014 -16.94055,13.47564 -6.54519,8.58625 -6.54519,16.8147 0,6.91675 3.33676,10.97136 3.33676,4.0546 8.47025,4.0546 z m -15.52881,27.42832 q -16.17056,-0.23874 -25.79584,-10.61355 -9.497,-10.49431 -9.497,-23.8507 0,-6.91669 1.79673,-12.87941 1.92507,-6.08191 4.49179,-10.49431 2.6951,-4.41234 7.4436,-8.58625 4.7485,-4.17385 8.59863,-6.6782 3.85013,-2.62353 10.13866,-5.48561 6.41685,-2.98139 10.26699,-4.41241 3.85013,-1.43106 10.39536,-3.69686 6.67352,-2.38504 9.36862,-3.45838 v -13.95262 q 0,-5.96266 -1.92506,-9.18254 -1.92507,-3.21982 -7.05856,-3.21982 -8.72697,0 -9.24029,11.20985 l -1.0267,10.375 -40.04134,-1.43102 q 0,-0.35778 0.12842,-2.3851 0.12842,-2.0273 0.12842,-2.26579 1.92507,-23.135166 15.40053,-34.106517 13.60375,-10.971292 38.75793,-10.971292 22.45909,0 34.13782,11.567582 11.80705,11.567583 11.80705,30.886637 v 65.70868 q 0,13.59489 2.6951,35.41829 h -38.11623 q -3.33685,-17.17251 -3.59351,-20.03459 -3.0801,9.65953 -10.5237,16.09923 -7.44355,6.4397 -18.73728,6.4397 z"
       inkscape:export-filename="/home/t-ara/Documents/yko/pf0/Webs/meraki/images/all-img/g2636.png"
       inkscape:export-xdpi="230"
       inkscape:export-ydpi="230" />
    <path
       inkscape:connector-curvature="0"
       id="path836"
       style="font-style:normal;font-variant:normal;font-weight:bold;font-stretch:normal;font-size:medium;line-height:1.25;font-family:Oswald;-inkscape-font-specification:'Oswald, Bold';font-variant-ligatures:normal;font-variant-caps:normal;font-variant-numeric:normal;font-feature-settings:normal;text-align:start;letter-spacing:0px;word-spacing:0px;writing-mode:lr-tb;text-anchor:start;fill:#ffffff;fill-opacity:1;stroke:none;stroke-width:0.26458332"
       d="M 573.20367,219.21279 V 21.4905 h 42.47978 v 109.59398 l 36.83282,-52.948588 h 48.1266 l -40.04134,57.837968 39.65635,83.35818 h -46.84324 l -26.43746,-67.02046 -11.29373,13.23715 v 53.66406 z"
       inkscape:export-filename="/home/t-ara/Documents/yko/pf0/Webs/meraki/images/all-img/g2636.png"
       inkscape:export-xdpi="230"
       inkscape:export-ydpi="230" />
    <path
       inkscape:connector-curvature="0"
       id="path838"
       style="font-style:normal;font-variant:normal;font-weight:bold;font-stretch:normal;font-size:medium;line-height:1.25;font-family:Oswald;-inkscape-font-specification:'Oswald, Bold';font-variant-ligatures:normal;font-variant-caps:normal;font-variant-numeric:normal;font-feature-settings:normal;text-align:start;letter-spacing:0px;word-spacing:0px;writing-mode:lr-tb;text-anchor:start;fill:#ffffff;fill-opacity:1;stroke:none;stroke-width:0.26458332"
       d="m 714.88833,54.404435 v -28.02455 h 43.12143 v 28.02455 z m 0.25684,164.927605 V 78.135892 h 42.86478 V 219.33204 Z"
       inkscape:export-filename="/home/t-ara/Documents/yko/pf0/Webs/meraki/images/all-img/g2636.png"
       inkscape:export-xdpi="230"
       inkscape:export-ydpi="230" />
  </g>
</svg>
